# xmcd
#
# Track frame offsets:
#	150
#	20042
#	42227
#	62067
#	82170
#	101945
#	120122
#	143780
#	163155
#	183040
#	194722
#	212827
#	232542
#
# Disc length: 3357 seconds
#
# Revision: 1
# Processed by: cddbd v1.5.2PL0 Copyright (c) Steve Scherf et al.
# Submitted via: audiograbber 1.83.01
#
DISCID=b20d1b0d
DTITLE=Werner Hoffmann - Alles wird neu
DYEAR=2001
DGENRE=Christian Pop
TTITLE0=Die offene Tür
TTITLE1=Wecke uns auf
TTITLE2=Hab keine Angst
TTITLE3=Liebe öffnet und befreit
TTITLE4=Pflanz den Apfelbaum
TTITLE5=Patmos, Insel der Stille
TTITLE6=Babylon
TTITLE7=Der Antichrist
TTITLE8=Frei
TTITLE9=Siehe, das ist Gottes Lamm
TTITLE10=Durst nach Leben
TTITLE11=Alles wird neu
TTITLE12=Die Hochzeit des Lammes
EXTD=
EXTT0=
EXTT1=
EXTT2=
EXTT3=
EXTT4=
EXTT5=
EXTT6=
EXTT7=
EXTT8=
EXTT9=
EXTT10=
EXTT11=
EXTT12=
PLAYORDER=
